<svg width="52" height="36" viewBox="0 0 52 36" fill="none" xmlns="http://www.w3.org/2000/svg">
<path d="M8.77681 3.64387C9.71209 2.68703 10.2213 2.10574 10.2213 1.67629C10.2213 1.42832 10.0479 1.18125 9.87549 1.00965C9.65508 0.84969 9.39078 0.760655 9.11806 0.754492C8.35251 0.754492 7.22945 1.54422 5.88251 3.06258C2.13778 7.30859 0.226601 11.4243 0.30424 17.4915C0.381879 23.5586 1.88139 28.0032 5.18466 32.0345C6.88098 34.1593 8.18098 35.25 9.10903 35.25C9.39366 35.2263 9.66098 35.1043 9.86466 34.905C10.0371 34.657 10.2086 34.3992 10.2086 34.1521C10.2086 33.6463 9.86015 33.056 9.01695 32.3058C5.0041 28.5027 2.93945 23.591 2.925 17.4816C2.91146 11.9625 4.87501 7.38316 8.77681 3.64387ZM21.6188 32.7407C21.6712 32.7739 21.701 32.7901 21.701 32.7901L21.6188 32.7407ZM30.086 32.7901L30.1013 32.7784C30.0842 32.7901 30.0779 32.7946 30.086 32.7901ZM30.3686 18.5786C28.9024 18.2057 34.9195 11.1314 24.2251 2.66098C24.2251 2.66098 25.6281 7.09746 18.553 16.9973C11.8481 26.3725 20.6709 32.1567 21.6224 32.7407C21.0149 32.3498 17.3433 29.5332 22.4846 21.1832C23.4776 19.539 24.7894 18.0503 26.4117 14.7C26.4117 14.7 27.848 16.717 27.0978 21.0906C25.9729 27.7031 31.9583 25.8083 32.0486 25.9009C34.1024 28.3069 30.4489 32.5053 30.1004 32.7784C30.5961 32.4505 40.727 25.7706 33.0796 15.8788C32.5388 16.4187 31.8338 18.9514 30.3686 18.5786ZM46.1211 3.05809C44.7778 1.53973 43.6511 0.75 42.882 0.75C42.6092 0.756163 42.3449 0.845198 42.1245 1.00516C41.9521 1.17676 41.7788 1.42383 41.7788 1.6718C41.7788 2.10125 42.2843 2.68344 43.2232 3.63938C47.1259 7.37777 49.0913 11.958 49.075 17.4807C49.0606 23.5901 46.9986 28.4982 42.9831 32.3049C42.1399 33.0551 41.7932 33.6454 41.7914 34.1512C41.7914 34.3983 41.9629 34.6561 42.1354 34.9041C42.3392 35.1033 42.6064 35.2256 42.891 35.25C43.819 35.25 45.119 34.1602 46.8154 32.0345C50.1186 28.005 51.6127 23.555 51.6958 17.4915C51.7788 11.4279 49.8622 7.30859 46.1211 3.05809Z" fill="black"/>
</svg>
